<?xml version="1.0" standalone="no"?>
<!DOCTYPE svg PUBLIC "-//W3C//DTD SVG 20010904//EN"
 "http://www.w3.org/TR/2001/REC-SVG-20010904/DTD/svg10.dtd">
<svg version="1.0" xmlns="http://www.w3.org/2000/svg"
 width="758.000000pt" height="758.000000pt" viewBox="0 0 758.000000 758.000000"
 preserveAspectRatio="xMidYMid meet">
<metadata>
Created by potrace 1.14, written by Peter Selinger 2001-2017
</metadata>
<g transform="translate(0.000000,758.000000) scale(0.100000,-0.100000)"
fill="#000000" stroke="none">
<path d="M3687 7463 c-2 -1 -56 -4 -122 -7 -274 -12 -529 -56 -815 -138 -58
-17 -111 -31 -117 -31 -7 0 -13 -4 -13 -9 0 -5 -4 -7 -8 -4 -5 3 -21 -1 -35
-9 -15 -8 -31 -14 -35 -15 -14 -1 -105 -33 -131 -46 -14 -8 -29 -14 -33 -14
-20 0 -316 -143 -385 -187 -29 -18 -53 -31 -53 -28 0 4 -65 -36 -87 -55 -7 -5
-15 -10 -18 -10 -14 0 -330 -222 -355 -250 -3 -3 -27 -23 -55 -45 -144 -116
-364 -339 -501 -510 -85 -105 -257 -345 -248 -345 3 0 -6 -15 -20 -33 -15 -19
-26 -37 -26 -41 0 -5 -8 -20 -19 -34 -29 -42 -145 -267 -186 -362 -20 -47 -42
-98 -50 -115 -7 -16 -19 -48 -26 -70 -8 -22 -18 -43 -24 -47 -5 -4 -7 -8 -3
-8 4 0 -7 -39 -23 -87 -28 -82 -82 -270 -93 -324 -3 -13 -8 -35 -11 -49 -10
-46 -25 -124 -30 -160 -3 -19 -7 -46 -10 -60 -3 -14 -8 -47 -11 -75 -3 -27 -7
-66 -10 -85 -13 -115 -17 -208 -17 -400 1 -193 4 -278 17 -390 2 -19 7 -64 11
-100 3 -36 9 -72 11 -80 3 -8 8 -33 11 -55 13 -115 95 -427 153 -585 17 -47
32 -89 34 -95 1 -5 9 -26 18 -46 9 -20 19 -47 23 -60 4 -13 14 -33 21 -44 8
-11 14 -27 14 -37 0 -10 5 -18 12 -18 6 0 9 -3 5 -6 -5 -6 108 -234 156 -312
12 -21 29 -49 36 -64 8 -16 18 -28 23 -28 4 0 8 -5 8 -10 0 -9 58 -103 83
-135 4 -5 25 -35 47 -65 22 -30 43 -59 48 -65 4 -5 21 -28 37 -50 17 -22 33
-42 36 -45 3 -3 27 -31 53 -63 157 -193 412 -433 636 -596 47 -34 92 -68 101
-74 18 -14 14 -11 176 -111 68 -42 123 -72 123 -68 0 4 4 2 8 -3 4 -6 25 -19
47 -30 22 -11 57 -30 78 -43 20 -12 37 -20 37 -18 0 3 30 -10 68 -28 132 -66
367 -156 404 -156 10 0 18 -4 18 -10 0 -5 13 -10 29 -10 17 0 33 -5 36 -11 4
-6 13 -8 21 -5 8 3 14 1 14 -5 0 -6 6 -9 14 -6 7 3 19 0 25 -6 6 -6 11 -8 11
-5 0 4 15 2 33 -3 17 -6 43 -12 56 -15 12 -3 51 -11 85 -19 257 -59 526 -85
831 -80 296 4 475 25 775 91 41 9 80 17 85 18 6 1 16 5 23 10 7 4 16 5 19 2 3
-3 12 -1 20 5 7 6 13 9 13 6 0 -3 16 1 35 9 19 8 35 12 35 9 0 -3 9 -1 21 5
11 6 29 13 40 15 29 6 231 81 313 116 209 91 458 228 631 347 118 81 139 96
145 102 3 3 41 34 85 70 127 103 142 117 291 265 157 157 270 289 381 445 40
58 79 112 86 120 7 8 13 20 15 25 1 6 7 17 14 25 7 8 22 32 33 53 11 20 23 37
27 37 5 0 8 4 8 10 0 5 14 33 31 62 45 76 129 243 129 256 0 7 4 12 10 12 5 0
9 3 8 8 -1 7 9 34 41 105 50 110 139 372 166 485 3 9 9 37 16 62 6 25 13 54
15 65 4 22 11 54 19 87 3 13 7 37 10 53 2 17 6 41 9 55 3 14 8 43 11 65 3 22
7 51 10 65 27 136 28 755 1 950 -3 19 -8 51 -10 70 -3 19 -8 53 -11 75 -7 49
-13 79 -16 83 -1 1 -2 10 -3 20 -1 9 -6 33 -11 52 -5 19 -8 39 -7 44 2 4 -2
14 -8 20 -5 7 -7 16 -4 19 3 3 2 12 -2 19 -4 7 -9 19 -10 28 -16 98 -123 409
-199 575 -12 28 -25 60 -29 73 -4 12 -12 22 -18 22 -6 0 -9 3 -5 6 7 7 -79
174 -150 292 -93 155 -251 381 -307 439 -11 12 -32 37 -46 55 -74 95 -285 307
-420 422 -154 131 -415 317 -520 371 -19 10 -37 21 -40 25 -14 19 -444 224
-486 232 -10 1 -21 6 -24 10 -3 4 -15 9 -25 11 -11 2 -33 10 -50 16 -16 7 -34
14 -40 15 -5 2 -17 6 -25 9 -38 14 -87 29 -110 33 -14 3 -44 12 -68 20 -111
37 -387 91 -605 119 -76 9 -454 24 -460 18z"/>
</g>
</svg>
